<svg width="32" height="32" viewBox="0 0 32 32" fill="none" xmlns="http://www.w3.org/2000/svg">
<path opacity="0.1" d="M26 29H7V4H22L26 8V29Z" fill="white"/>
<path d="M26 8H22V4L26 8ZM20 2V9C20 9.26522 20.1054 9.51957 20.2929 9.70711C20.4804 9.89464 20.7348 10 21 10H28L20 2Z" fill="#9DA2A5"/>
<path d="M24 16H9V18H24V16Z" fill="#ADB1B2"/>
<path d="M24 12H9V14H24V12Z" fill="#ADB1B2"/>
<path d="M24 20H9V22H24V20Z" fill="#ADB1B2"/>
<path d="M24 24H9V26H24V24Z" fill="#ADB1B2"/>
<path fill-rule="evenodd" clip-rule="evenodd" d="M6 12C5.74235 11.9775 5.50088 11.8649 5.318 11.682C5.13512 11.4991 5.02253 11.2576 5 11V8.41002L3.17002 10.24C2.97221 10.4052 2.7227 10.4956 2.46502 10.4956C2.20733 10.4956 1.95782 10.4052 1.76002 10.24C1.59486 10.0422 1.50439 9.79269 1.50439 9.535C1.50439 9.27731 1.59486 9.02781 1.76002 8.83L3.59002 7H1C0.742352 6.97747 0.500881 6.86488 0.318001 6.682C0.135122 6.49912 0.0225288 6.25765 0 6C0.0225288 5.74235 0.135122 5.50088 0.318001 5.318C0.500881 5.13512 0.742352 5.02253 1 5H3.59002L1.76002 3.17C1.59486 2.9722 1.50439 2.72269 1.50439 2.465C1.50439 2.20731 1.59486 1.95781 1.76002 1.76C1.95782 1.59485 2.20733 1.50438 2.46502 1.50438C2.7227 1.50438 2.97221 1.59485 3.17002 1.76L5 3.58998V1C5.02253 0.742352 5.13512 0.500881 5.318 0.318001C5.50088 0.135122 5.74235 0.0225288 6 0C6.25765 0.0225288 6.49912 0.135122 6.682 0.318001C6.86488 0.500881 6.97747 0.742352 7 1V3.59002L8.83002 1.76C9.02782 1.59485 9.27733 1.50438 9.53502 1.50438C9.7927 1.50438 10.0422 1.59485 10.24 1.76C10.4052 1.95781 10.4956 2.20731 10.4956 2.465C10.4956 2.72269 10.4052 2.9722 10.24 3.17L8.41002 5H11C11.2576 5.02253 11.4991 5.13512 11.682 5.318C11.8649 5.50088 11.9775 5.74235 12 6C11.9775 6.25765 11.8649 6.49912 11.682 6.682C11.4991 6.86488 11.2576 6.97747 11 7H8.41002L10.24 8.83C10.4052 9.02781 10.4956 9.27731 10.4956 9.535C10.4956 9.79269 10.4052 10.0422 10.24 10.24C10.0422 10.4052 9.7927 10.4956 9.53502 10.4956C9.27733 10.4956 9.02782 10.4052 8.83002 10.24L7 8.40998V11C6.97747 11.2576 6.86488 11.4991 6.682 11.682C6.49912 11.8649 6.25765 11.9775 6 12ZM7.5 6C7.5 6.82843 6.82843 7.5 6 7.5C5.17157 7.5 4.5 6.82843 4.5 6C4.5 5.17157 5.17157 4.5 6 4.5C6.82843 4.5 7.5 5.17157 7.5 6Z" fill="#E0AD5C"/>
<path d="M21.5 2H12V4H21L26 9V29H7V13H5V30C5 30.2652 5.10536 30.5196 5.29289 30.7071C5.48043 30.8946 5.73478 31 6 31H27C27.2652 31 27.5196 30.8946 27.7071 30.7071C27.8946 30.5196 28 30.2652 28 30V8.5L21.5 2Z" fill="#9DA2A5"/>
</svg>
