<svg width="32" height="32" viewBox="0 0 32 32" fill="none" xmlns="http://www.w3.org/2000/svg">
<g clip-path="url(#clip0)">
<path opacity="0.5" d="M27 0H4V31H27V0Z" fill="white"/>
<path fill-rule="evenodd" clip-rule="evenodd" d="M27 0H7V28H27C27.2652 28 27.5196 27.8946 27.7071 27.7071C27.8946 27.5196 28 27.2652 28 27V1C28 0.734784 27.8946 0.48043 27.7071 0.292893C27.5196 0.105357 27.2652 0 27 0ZM12 6H24V10H12V6Z" fill="#6FA6D4"/>
<path fill-rule="evenodd" clip-rule="evenodd" d="M5 0H6V28C5.73478 28 5.48043 28.1054 5.29289 28.2929C5.10536 28.4804 5 28.7348 5 29C5 29.2652 5.10536 29.5196 5.29289 29.7071C5.48043 29.8946 5.73478 30 6 30H27C27.1348 29.9859 27.271 30.002 27.3988 30.0473C27.5266 30.0925 27.6426 30.1657 27.7384 30.2616C27.8343 30.3574 27.9075 30.4734 27.9527 30.6012C27.998 30.729 28.0141 30.8652 28 31C28.0088 31.1336 27.989 31.2676 27.9419 31.3929C27.8948 31.5182 27.8214 31.632 27.7267 31.7267C27.632 31.8214 27.5182 31.8948 27.3929 31.9419C27.2676 31.989 27.1336 32.0088 27 32H5C4.46957 32 3.96086 31.7893 3.58579 31.4142C3.21071 31.0391 3 30.5304 3 30V2C3 1.46957 3.21071 0.960859 3.58579 0.585786C3.96086 0.210714 4.46957 0 5 0Z" fill="#6FA6D4"/>
</g>
<defs>
<clipPath id="clip0">
<rect width="32" height="32" fill="white"/>
</clipPath>
</defs>
</svg>
