<svg width="32" height="32" viewBox="0 0 32 32" fill="none" xmlns="http://www.w3.org/2000/svg">
<path opacity="0.1" d="M30 9H10V23H30V9Z" fill="white"/>
<path d="M30 9V23H10V9H30ZM31 7H9C8.73478 7 8.48043 7.10536 8.29289 7.29289C8.10536 7.48043 8 7.73478 8 8V24C8 24.2652 8.10536 24.5196 8.29289 24.7071C8.48043 24.8946 8.73478 25 9 25H31C31.2652 25 31.5196 24.8946 31.7071 24.7071C31.8946 24.5196 32 24.2652 32 24V8C32 7.73478 31.8946 7.48043 31.7071 7.29289C31.5196 7.10536 31.2652 7 31 7Z" fill="#9DA2A5"/>
<path d="M22 15H12V17H22V15Z" fill="#ADB1B2"/>
<path d="M22 19H12V21H22V19Z" fill="#ADB1B2"/>
<path d="M28 11H24V15H28V11Z" fill="#7DA7B5"/>
<path d="M6 9H0V11H6V9Z" fill="#9DA2A5"/>
<path d="M6 21H0V23H6V21Z" fill="#9DA2A5"/>
<path d="M6 17H0V19H6V17Z" fill="#9DA2A5"/>
<path d="M6 13H0V15H6V13Z" fill="#9DA2A5"/>
</svg>
